# xmcd
#
# Track frame offsets:
#	150
#	16837
#	36112
#	57024
#	72361
#	91534
#	106946
#	124871
#	144812
#	166138
#	184794
#	201369
#
# Disc length: 2961 seconds
#
# Revision: 0
# Processed by: cddbd v1.5.2PL0 Copyright (c) Steve Scherf et al.
# Submitted via: FairStars CD Ripper 1.52
#
DISCID=930b8f0c
DTITLE=Willy Blizzard - In From The Cold
DYEAR=2010
DGENRE=Country
TTITLE0=Santa Fe Train
TTITLE1=Lester And Lily
TTITLE2=Mama Get The Hammer
TTITLE3=The Next Little Town
TTITLE4=Roll That Rock
TTITLE5=January
TTITLE6=Hallie
TTITLE7=Box Full Of Empties
TTITLE8=Happy Man
TTITLE9=Luke The Drifter
TTITLE10=Ellen's Hands
TTITLE11=Along For The Ride
EXTD=
EXTT0=
EXTT1=
EXTT2=
EXTT3=
EXTT4=
EXTT5=
EXTT6=
EXTT7=
EXTT8=
EXTT9=
EXTT10=
EXTT11=
PLAYORDER=
